<?xml version="1.0" encoding="UTF-8" standalone="no"?>
<svg
   version="1.2"
   x="0px"
   y="0px"
   viewBox="0 0 99.651001 55.761002"
   xml:space="preserve"
   id="svg2"
   sodipodi:docname="noun-toggle-switch-731364.svg"
   inkscape:version="1.3.2 (091e20e, 2023-11-25)"
   width="99.651001"
   height="55.761002"
   xmlns:inkscape="http://www.inkscape.org/namespaces/inkscape"
   xmlns:sodipodi="http://sodipodi.sourceforge.net/DTD/sodipodi-0.dtd"
   xmlns:xlink="http://www.w3.org/1999/xlink"
   xmlns="http://www.w3.org/2000/svg"
   xmlns:svg="http://www.w3.org/2000/svg"><defs
     id="defs2"><linearGradient
       id="linearGradient9"
       inkscape:collect="always"><stop
         style="stop-color:#16b0ed;stop-opacity:1;"
         offset="0"
         id="stop9" /><stop
         style="stop-color:#0f59b2;stop-opacity:1;"
         offset="1"
         id="stop10" /></linearGradient><linearGradient
       id="linearGradient7"
       inkscape:collect="always"><stop
         style="stop-color:#88c649;stop-opacity:0.80000001;"
         offset="0"
         id="stop7" /><stop
         style="stop-color:#439240;stop-opacity:0.8392157;"
         offset="1"
         id="stop8" /></linearGradient><linearGradient
       id="linearGradient5"
       inkscape:collect="always"><stop
         style="stop-color:#7db643;stop-opacity:1;"
         offset="0"
         id="stop5" /><stop
         style="stop-color:#367533;stop-opacity:1;"
         offset="1"
         id="stop6" /></linearGradient><linearGradient
       inkscape:collect="always"
       xlink:href="#linearGradient5"
       id="linearGradient6"
       x1="37.682117"
       y1="101.37587"
       x2="67.754646"
       y2="101.37587"
       gradientUnits="userSpaceOnUse"
       gradientTransform="translate(-0.21757676,-69.039343)" /><linearGradient
       inkscape:collect="always"
       xlink:href="#linearGradient7"
       id="linearGradient8"
       x1="46.39642"
       y1="92.715233"
       x2="59.033527"
       y2="92.715233"
       gradientUnits="userSpaceOnUse"
       gradientTransform="translate(-0.21757676,-69.039343)" /><linearGradient
       inkscape:collect="always"
       xlink:href="#linearGradient9"
       id="linearGradient10"
       x1="45.447838"
       y1="71.128448"
       x2="51.660801"
       y2="87.2967"
       gradientUnits="userSpaceOnUse"
       gradientTransform="translate(-0.21757676,-69.039343)" /></defs><sodipodi:namedview
     id="namedview2"
     pagecolor="#ffffff"
     bordercolor="#000000"
     borderopacity="0.25"
     inkscape:showpageshadow="2"
     inkscape:pageopacity="0.0"
     inkscape:pagecheckerboard="0"
     inkscape:deskcolor="#d1d1d1"
     showgrid="false"
     inkscape:zoom="6.83348"
     inkscape:cx="-12.511927"
     inkscape:cy="43.023467"
     inkscape:window-width="2552"
     inkscape:window-height="1379"
     inkscape:window-x="4"
     inkscape:window-y="29"
     inkscape:window-maximized="0"
     inkscape:current-layer="svg2" /><path
     d="M 62.478013,17.456253 H 55.07562 L 51.062479,3.6060038 c -0.03142,-0.107721 -0.06633,-0.215942 -0.105228,-0.322168 -0.455824,-1.251769 -1.37146,-2.251189 -2.578844,-2.81423502 -1.206884,-0.562548 -2.560889,-0.621895 -3.813157,-0.166071 -1.251769,0.45532403 -2.251189,1.37145902 -2.814236,2.57834402 -0.563046,1.206885 -0.622393,2.561887 -0.166071,3.8141547 0.0384,0.105228 0.07979,0.207962 0.125676,0.312692 l 4.616583,10.4475325 h -3.797697 v 7.48069 h -8.727472 v 14.961384 h 7.480691 v 4.98713 h 2.493563 v -4.98713 h 7.48069 v 4.98713 h 2.493564 v -4.98713 h 7.48069 v 4.98713 h 2.493563 v -4.98713 h 7.480691 V 24.936943 H 62.478013 Z M 43.992728,6.0043138 c -0.02344,-0.05286 -0.04489,-0.107223 -0.06483,-0.161583 -0.227911,-0.625884 -0.197989,-1.303136 0.08329,-1.906579 0.281274,-0.603442 0.780984,-1.06126 1.406869,-1.289172 v 0 c 0.27878,-0.101737 0.567037,-0.152107 0.854295,-0.152107 0.359073,0 0.717148,0.0788 1.052283,0.234893 0.603443,0.281274 1.061261,0.780984 1.289672,1.407866 0.01945,0.05336 0.0369,0.107224 0.05237,0.161583 L 52.47983,17.456253 H 49.053675 Z M 46.26985,21.196599 h 12.467817 v 4.987126 H 46.26985 Z M 67.465139,36.157987 H 37.542378 v -7.480698 h 29.922761"
     id="path1"
     style="stroke-width:0.498713"
     inkscape:label="Switch Path"
     sodipodi:nodetypes="ccccccscccccccccccccccccccccccccsssscsccccccccccccc" /><path
     style="fill:url(#linearGradient6);fill-opacity:1;fill-rule:evenodd;stroke:none;stroke-width:13.06;stroke-opacity:1;paint-order:fill markers stroke"
     d="m 37.464541,28.49515 v 7.829097 h 30.072526 v -7.975435 z"
     id="path5"
     inkscape:label="Bottom Green" /><path
     style="fill:url(#linearGradient8);fill-opacity:1;fill-rule:evenodd;stroke:none;stroke-width:13.06;stroke-opacity:1;paint-order:fill markers stroke"
     d="m 46.178843,21.088968 v 5.173841 H 58.81595 v -5.122102 z"
     id="path6"
     inkscape:label="Mid Green" /><text
     xml:space="preserve"
     style="font-size:13.665px;display:inline;fill:#ff0000;fill-opacity:1;stroke:#000000;stroke-width:0.142354;stroke-dasharray:none;stroke-opacity:1;paint-order:fill markers stroke"
     x="-0.33877301"
     y="55.689472"
     id="text35"
     inkscape:label="Toggle Text"><tspan
       sodipodi:role="line"
       id="tspan35"
       style="font-style:normal;font-variant:normal;font-weight:normal;font-stretch:normal;font-size:13.665px;font-family:'Stalinist One';-inkscape-font-specification:'Stalinist One';fill-rule:evenodd;stroke:#a92238;stroke-width:0.142354;stroke-dasharray:none;stroke-opacity:1"
       x="-0.33877301"
       y="55.689472">TOGGLE</tspan></text><path
     style="fill:url(#linearGradient10);fill-opacity:1;fill-rule:evenodd;stroke:none;stroke-width:13.06;stroke-opacity:1;paint-order:fill markers stroke"
     d="m 48.908044,17.519018 h 3.699296 c 0,0 -2.305009,-12.4544012 -4.242549,-14.3056702 -1.937539,-1.851269 -4.528624,-0.26541 -4.708196,1.578021 -0.179572,1.8434317 5.251449,12.7276492 5.251449,12.7276492 z"
     id="path8"
     sodipodi:nodetypes="cczzc"
     inkscape:label="Blue Toggle" /></svg>
